<svg width="12" height="12" viewBox="0 0 12 12" fill="none" xmlns="http://www.w3.org/2000/svg">
<path fill-rule="evenodd" clip-rule="evenodd" d="M8.7088 0.71727L6.00006 3.387L3.29132 0.717269C2.99608 0.426275 2.52188 0.426275 2.22664 0.717269C1.92527 1.0143 1.92527 1.50049 2.22664 1.79752L5.2981 4.82475C5.68742 5.20846 6.31271 5.20846 6.70202 4.82475L9.77349 1.79752C10.0749 1.50049 10.0749 1.0143 9.77349 0.717269C9.47825 0.426275 9.00405 0.426275 8.7088 0.71727ZM8.70856 7.10582L5.99982 9.77555L3.29108 7.10582C2.99583 6.81482 2.52164 6.81482 2.22639 7.10582C1.92502 7.40285 1.92502 7.88904 2.22639 8.18607L5.29786 11.2133C5.68718 11.597 6.31246 11.597 6.70178 11.2133L9.77325 8.18607C10.0746 7.88904 10.0746 7.40285 9.77325 7.10582C9.478 6.81482 9.0038 6.81483 8.70856 7.10582Z" fill="#41F6D7"/>
</svg>
