<svg width="21" height="20" viewBox="0 0 21 20" fill="none" xmlns="http://www.w3.org/2000/svg">
<path fill-rule="evenodd" clip-rule="evenodd" d="M2.79969 13.2748L5.34483 12.9842C5.95606 12.914 6.55728 13.1245 6.98814 13.5553L8.83186 15.3991C11.6676 13.9561 13.9923 11.6415 15.4352 8.79573L13.5815 6.94199C13.1506 6.51112 12.9402 5.90991 13.0103 5.29868L13.3009 2.77358C13.4211 1.76154 14.2728 1 15.2949 1H17.0284C18.1607 1 19.1026 1.9419 19.0325 3.07419C18.5014 11.6315 11.6576 18.4652 3.11032 18.9963C1.97803 19.0665 1.03613 18.1246 1.03613 16.9923V15.2588C1.02611 14.2467 1.78765 13.395 2.79969 13.2748Z" fill="white"/>
</svg>
