<svg width="20" height="20" viewBox="0 0 20 20" fill="none" xmlns="http://www.w3.org/2000/svg">
<path fill-rule="evenodd" clip-rule="evenodd" d="M3.82425 2.29472C3.43372 1.9042 2.80056 1.9042 2.41003 2.29472L2.29472 2.41003C1.9042 2.80056 1.9042 3.43372 2.29472 3.82425L8.47047 9.99999L2.29474 16.1757C1.90421 16.5663 1.90421 17.1994 2.29474 17.5899L2.41005 17.7053C2.80057 18.0958 3.43374 18.0958 3.82426 17.7053L9.99999 11.5295L16.1757 17.7053C16.5663 18.0958 17.1994 18.0958 17.5899 17.7053L17.7052 17.5899C18.0958 17.1994 18.0958 16.5663 17.7052 16.1757L11.5295 9.99999L17.7053 3.82425C18.0958 3.43372 18.0958 2.80056 17.7053 2.41003L17.59 2.29472C17.1994 1.9042 16.5663 1.9042 16.1757 2.29472L9.99999 8.47047L3.82425 2.29472Z" fill="white"/>
</svg>
