<svg fill="none" viewBox="0 0 92 50" xmlns="http://www.w3.org/2000/svg"><path d="m34.481 1c-0.5523 0-1 0.44772-1 1v3.9274c0 0.55229 0.4477 1 1 1h33.795c9.4401 0 16.854 7.3647 16.854 16.899 0 0.2697 0.2187 0.4884 0.4885 0.4884h4.8924c0.2697 0 0.4884-0.2187 0.4884-0.4884 0-12.742-10.107-22.826-22.723-22.826h-33.795z" clip-rule="evenodd" fill="#6B7B84" fill-rule="evenodd" stroke="#80949F" stroke-width=".5"/><path d="m6.948 24.728c0-0.2286-0.18536-0.414-0.41401-0.414h-5.12c-0.22865 0-0.41401 0.1854-0.41401 0.414 0 12.893 9.5299 23.539 21.853 24.235l39.402 0.0356c0.5527 5e-4 1.0009-0.4473 1.0009-1v-4.215c0-0.5523-0.4477-1.0001-1-1.0001h-38.044c-9.5419-0.0267-17.264-8.0704-17.264-18.056z" clip-rule="evenodd" fill="#6B7B84" fill-rule="evenodd" stroke="#80949F" stroke-width=".5"/><path d="m26.556 38.028c2.553 0 4.6796-0.5026 6.7801-1.5368l0.145-0.1374v-7.4005l-0.786 1.0196c-1.5124 1.6747-3.5435 2.5965-5.8415 2.5965-4.2802 0-8.5791-2.8034-8.5791-8.1613 0-4.0489 2.9649-8.352 8.4286-8.352 1.0902 0 3.7415 0.2612 5.9882 2.6789l0.7898 0.9859v-7.3669l-0.1387-0.1393c-2.1402-1.0869-4.3229-1.6152-6.8124-1.6152-4.2572 0-7.5801 1.1357-10.226 3.47-1.6782 1.463-4.4773 4.7415-4.4773 10.262 0 4.0815 1.4342 7.269 4.4988 10.034 2.8509 2.5333 6.012 3.6632 10.23 3.6632" clip-rule="evenodd" fill="#6B7B84" fill-rule="evenodd"/><path d="m26.556 38.028c2.553 0 4.6796-0.5026 6.7801-1.5368l0.145-0.1374v-7.4005l-0.786 1.0196c-1.5124 1.6747-3.5435 2.5965-5.8415 2.5965-4.2802 0-8.5791-2.8034-8.5791-8.1613 0-4.0489 2.9649-8.352 8.4286-8.352 1.0902 0 3.7415 0.2612 5.9882 2.6789l0.7898 0.9859v-7.3669l-0.1387-0.1393c-2.1402-1.0869-4.3229-1.6152-6.8124-1.6152-4.2572 0-7.5801 1.1357-10.226 3.47-1.6782 1.463-4.4773 4.7415-4.4773 10.262 0 4.0815 1.4342 7.269 4.4988 10.034 2.8509 2.5333 6.012 3.6632 10.23 3.6632" stroke="#80949F" stroke-width=".5"/><path d="m44.985 16.772h1.2718c1.1666 0 2.4962 0.0645 3.5026 0.7596 0.4914 0.3557 1.3159 1.1791 1.3159 2.6747 0 1.1052-0.482 2.0962-1.2781 2.7146-1.0208 0.7508-2.2341 0.7078-3.209 0.7078h-1.6032v-6.8567zm2.8579 11.835c3.0122 0 5.37-0.8804 7.0074-2.5391 2.0142-2.0368 2.3153-4.8387 2.3153-6.3159 0-1.5806-0.3698-4.6635-2.8495-6.8957-2.0325-1.8048-4.2013-2.2558-7.2605-2.2558h-8.1607v27.428h6.207v-9.422h2.741z" clip-rule="evenodd" fill="#6B7B84" fill-rule="evenodd"/>
<path d="m44.985 16.772v-0.25h-0.25v0.25h0.25zm4.7744 0.7596 0.1466-0.2026-0.0045-0.0031-0.1421 0.2057zm0.0378 5.3893 0.1481 0.2015 0.0052-4e-3 -0.1533-0.1975zm-4.8122 0.7078h-0.25v0.25h0.25v-0.25zm9.8653 2.4392-0.1777-0.1758-2e-4 2e-4 0.1779 0.1756zm-0.5342-13.212 0.1673-0.1858-0.0013-0.0011-0.166 0.1869zm-15.421-2.2558v-0.25h-0.25v0.25h0.25zm0 27.428h-0.25v0.25h0.25v-0.25zm6.207 0v0.25h0.25v-0.25h-0.25zm0-9.422v-0.25h-0.25v0.25h0.25zm-0.1169-11.585h1.2718v-0.5h-1.2718v0.5zm1.2718 0c1.1722 0 2.4259 0.0698 3.3605 0.7153l0.2842-0.4114c-1.0782-0.7447-2.4837-0.8039-3.6447-0.8039v0.5zm3.356 0.7121c0.4515 0.3268 1.2125 1.0834 1.2125 2.4722h0.5c0-1.6024-0.8881-2.4927-1.4193-2.8772l-0.2932 0.405zm1.2125 2.4722c0 1.0325-0.4498 1.9488-1.1815 2.5172l0.3067 0.3949c0.8605-0.6684 1.3748-1.7341 1.3748-2.9121h-0.5zm-1.1763 2.5132c-0.9427 0.6934-2.0655 0.6592-3.0608 0.6592v0.5c0.9545 0 2.2583 0.0518 3.3571-0.7564l-0.2963-0.4028zm-3.0608 0.6592h-1.6032v0.5h1.6032v-0.5zm-1.3532 0.25v-6.8567h-0.5v6.8567h0.5zm2.6079 5.2283c3.0616 0 5.49-0.8961 7.1854-2.6135l-0.3559-0.3512c-1.5794 1.5999-3.8667 2.4647-6.8295 2.4647v0.5zm7.1852-2.6133c2.0846-2.1081 2.3875-4.9938 2.3875-6.4917h-0.5c0 1.4564-0.2993 4.1745-2.243 6.1401l0.3555 0.3516zm2.3875-6.4917c0-1.6079-0.3744-4.779-2.9322-7.0815l-0.3345 0.3716c2.4015 2.1619 2.7667 5.1566 2.7667 6.7099h0.5zm-2.9335-7.0826c-2.0981-1.8631-4.3391-2.3189-7.4265-2.3189v0.5c3.0311 0 5.1275 0.4461 7.0945 2.1928l0.332-0.3739zm-7.4265-2.3189h-8.1607v0.5h8.1607v-0.5zm-8.4107 0.25v27.428h0.5v-27.428h-0.5zm0.25 27.678h6.207v-0.5h-6.207v0.5zm6.457-0.25v-9.422h-0.5v9.422h0.5zm-0.25-9.172h2.741v-0.5h-2.741v0.5z" fill="#80949F"/>
<path d="m75.786 23.554c-1.3494-1.2115-3.2331-1.9139-5.3711-2.6424-1.5233-0.5371-2.3627-0.833-2.9222-1.35-0.4417-0.3799-0.6386-0.7924-0.6386-1.3375 0-1.194 0.8007-2.47 3.0484-2.47 1.5276 0 2.8066 0.6619 3.8017 1.9664l0.3951 0.518 3.2777-4.2279-0.2988-0.3033c-2.0047-2.0328-4.6463-3.1069-7.6394-3.1069-6.0389 0-8.7421 3.9811-8.7421 7.9266 0 2.1173 0.7451 3.8249 2.2101 5.0731 1.3116 1.1392 2.911 1.7775 4.4453 2.2985l0.1734 0.0582c1.3624 0.4563 2.7715 0.9286 3.6131 1.6919 0.5854 0.5451 0.8464 1.1375 0.8464 1.9207 0 1.7948-1.3949 3.0009-3.4708 3.0009-1.6411 0-3.8019-0.8151-4.9452-3.1021l-0.299-0.5992-4.0741 3.8216 0.2402 0.3444c1.2999 1.8651 4.233 4.9939 9.2713 4.9939 5.5556 0 9.4358-3.6193 9.4358-8.8011 0-2.9639-1.2832-4.723-2.3572-5.6738" clip-rule="evenodd" fill="#6B7B84" fill-rule="evenodd"/>
<path d="m75.786 23.554c-1.3494-1.2115-3.2331-1.9139-5.3711-2.6424-1.5233-0.5371-2.3627-0.833-2.9222-1.35-0.4417-0.3799-0.6386-0.7924-0.6386-1.3375 0-1.194 0.8007-2.47 3.0484-2.47 1.5276 0 2.8066 0.6619 3.8017 1.9664l0.3951 0.518 3.2777-4.2279-0.2988-0.3033c-2.0047-2.0328-4.6463-3.1069-7.6394-3.1069-6.0389 0-8.7421 3.9811-8.7421 7.9266 0 2.1173 0.7451 3.8249 2.2101 5.0731 1.3116 1.1392 2.911 1.7775 4.4453 2.2985l0.1734 0.0582c1.3624 0.4563 2.7715 0.9286 3.6131 1.6919 0.5854 0.5451 0.8464 1.1375 0.8464 1.9207 0 1.7948-1.3949 3.0009-3.4708 3.0009-1.6411 0-3.8019-0.8151-4.9452-3.1021l-0.299-0.5992-4.0741 3.8216 0.2402 0.3444c1.2999 1.8651 4.233 4.9939 9.2713 4.9939 5.5556 0 9.4358-3.6193 9.4358-8.8011 0-2.9639-1.2832-4.723-2.3572-5.6738" stroke="#80949F" stroke-width=".5"/>
</svg>
