<svg width="20" height="20" viewBox="0 0 20 20" fill="none" xmlns="http://www.w3.org/2000/svg">
<path fill-rule="evenodd" clip-rule="evenodd" d="M1 3C1 2.44772 1.44772 2 2 2H18C18.5523 2 19 2.44772 19 3C19 3.55228 18.5523 4 18 4H2C1.44772 4 1 3.55228 1 3ZM1 10C1 9.44772 1.44772 9 2 9H10C10.5523 9 11 9.44772 11 10C11 10.5523 10.5523 11 10 11H2C1.44772 11 1 10.5523 1 10ZM2 16C1.44772 16 1 16.4477 1 17C1 17.5523 1.44772 18 2 18H14C14.5523 18 15 17.5523 15 17C15 16.4477 14.5523 16 14 16H2Z" fill="white"/>
</svg>
