<svg width="20" height="20" viewBox="0 0 20 20" fill="none" xmlns="http://www.w3.org/2000/svg">
<path fill-rule="evenodd" clip-rule="evenodd" d="M2 1C2 0.447715 2.44772 0 3 0H17C17.5523 0 18 0.447716 18 1V18.5C17.1716 18.5 16.5001 19.1715 16.5 19.9999H15.5C15.4999 19.1715 14.8284 18.5 14 18.5C13.1716 18.5 12.5001 19.1715 12.5 19.9999H11.5C11.4999 19.1715 10.8284 18.5 10 18.5C9.17161 18.5 8.50006 19.1715 8.5 19.9999H7.5C7.49994 19.1715 6.82839 18.5 6 18.5C5.17161 18.5 4.50006 19.1715 4.5 19.9999H3.5C3.49994 19.1715 2.82839 18.5 2 18.5V1ZM11.4164 11.7884C10.5536 12.3444 9.47039 12.5936 8.32965 12.3827C6.52748 12.0472 5.08957 10.5327 4.85951 8.71142C4.49524 5.82612 6.94926 3.42012 9.85383 3.88023C11.656 4.1678 13.1035 5.644 13.4007 7.43652C13.5828 8.54846 13.324 9.57413 12.7872 10.4273L14.8961 12.5265C15.2699 12.9004 15.2699 13.5138 14.8961 13.8877C14.5126 14.2711 13.8991 14.2711 13.5253 13.8973L11.4164 11.7884ZM6.70588 8.05882C6.70588 6.76 7.76 5.70588 9.05882 5.70588C10.3576 5.70588 11.4118 6.76 11.4118 8.05882C11.4118 9.35765 10.3576 10.4118 9.05882 10.4118C7.76 10.4118 6.70588 9.35765 6.70588 8.05882Z" fill="white"/>
</svg>
