<svg width="20" height="20" viewBox="0 0 20 20" fill="none" xmlns="http://www.w3.org/2000/svg">
<path fill-rule="evenodd" clip-rule="evenodd" d="M13.958 12.4631H13.1707L12.8917 12.1941C14.0876 10.7988 14.7055 8.89534 14.3666 6.87226C13.8982 4.10173 11.5861 1.88929 8.79568 1.55045C4.58009 1.03223 1.03223 4.58009 1.55045 8.79568C1.88929 11.5861 4.10173 13.8982 6.87226 14.3666C8.89534 14.7055 10.7988 14.0876 12.1941 12.8917L12.4631 13.1707V13.958L16.7086 18.1935C17.1172 18.6022 17.775 18.6022 18.1836 18.1935L18.1935 18.1836C18.6022 17.775 18.6022 17.1172 18.1935 16.7086L13.958 12.4631ZM7.97841 12.4631C5.49689 12.4631 3.49374 10.4599 3.49374 7.97841C3.49374 5.49689 5.49689 3.49374 7.97841 3.49374C10.4599 3.49374 12.4631 5.49689 12.4631 7.97841C12.4631 10.4599 10.4599 12.4631 7.97841 12.4631Z" fill="white"/>
</svg>
