<svg fill="none" viewBox="0 0 98 53" xmlns="http://www.w3.org/2000/svg">
<path d="m36.844 1c-0.5522 0-1 0.44772-1 1v4.275c0 0.55229 0.4478 1 1 1h36.327c10.127 0 18.08 7.7966 18.08 17.889 0 0.2856 0.2315 0.5171 0.5171 0.5171h5.2622c0.2855 0 0.517-0.2315 0.517-0.5171 0-13.489-10.842-24.164-24.377-24.164h-36.327z" clip-rule="evenodd" fill="#6B7B84" fill-rule="evenodd" stroke="#80949F" stroke-width=".5"/>
<path d="m7.3808 26.12c0-0.242-0.19623-0.4383-0.43829-0.4383h-5.5042c-0.24206 0-0.43829 0.1963-0.43829 0.4383 0 13.649 10.223 24.919 23.443 25.656l42.342 0.0378c0.5526 5e-4 1.0009-0.4474 1.0009-1v-4.5796c0-0.5523-0.4477-1-1-1h-40.885c-10.236-0.0284-18.52-8.5437-18.52-19.115z" clip-rule="evenodd" fill="#6B7B84" fill-rule="evenodd" stroke="#80949F" stroke-width=".5"/>
<path d="m28.415 40.2c2.7389 0 5.0202-0.5321 7.2734-1.6269l0.1556-0.1455v-7.8345l-0.8432 1.0794c-1.6224 1.7729-3.8013 2.7488-6.2665 2.7488-4.5916 0-9.2032-2.9678-9.2032-8.6399 0-4.2863 3.1805-8.8418 9.0418-8.8418 1.1695 0 4.0136 0.2765 6.4238 2.836l0.8473 1.0437v-7.7989l-0.1487-0.1475c-2.2959-1.1506-4.6375-1.7099-7.3081-1.7099-4.567 0-8.1316 1.2023-10.97 3.6736-1.8004 1.5487-4.8031 5.0195-4.8031 10.863 0 4.3208 1.5386 7.6952 4.8261 10.622 3.0583 2.6818 6.4494 3.878 10.975 3.878" clip-rule="evenodd" fill="#6B7B84" fill-rule="evenodd"/>
<path d="m28.415 40.2c2.7389 0 5.0202-0.5321 7.2734-1.6269l0.1556-0.1455v-7.8345l-0.8432 1.0794c-1.6224 1.7729-3.8013 2.7488-6.2665 2.7488-4.5916 0-9.2032-2.9678-9.2032-8.6399 0-4.2863 3.1805-8.8418 9.0418-8.8418 1.1695 0 4.0136 0.2765 6.4238 2.836l0.8473 1.0437v-7.7989l-0.1487-0.1475c-2.2959-1.1506-4.6375-1.7099-7.3081-1.7099-4.567 0-8.1316 1.2023-10.97 3.6736-1.8004 1.5487-4.8031 5.0195-4.8031 10.863 0 4.3208 1.5386 7.6952 4.8261 10.622 3.0583 2.6818 6.4494 3.878 10.975 3.878" stroke="#80949F" stroke-width=".5"/>
<path d="m48.185 17.696h1.3643c1.2515 0 2.6778 0.0683 3.7574 0.8042 0.5271 0.3765 1.4116 1.2482 1.4116 2.8316 0 1.17-0.517 2.2191-1.3711 2.8738-1.095 0.7948-2.3966 0.7492-3.4424 0.7492h-1.7198v-7.2588zm3.0657 12.529c3.2314 0 5.7608-0.9321 7.5173-2.6881 2.1607-2.1562 2.4837-5.1225 2.4837-6.6862 0-1.6733-0.3967-4.937-3.0568-7.3001-2.1804-1.9107-4.507-2.3881-7.7888-2.3881h-8.7544v29.037h6.6585v-9.9745h2.9405z" clip-rule="evenodd" fill="#6B7B84" fill-rule="evenodd"/>
<path d="m48.185 17.696v-0.25h-0.25v0.25h0.25zm5.1217 0.8042 0.1453-0.2035-0.0045-0.0031-0.1408 0.2066zm0.0405 5.7054 0.1469 0.2023 0.0052-0.0039-0.1521-0.1984zm-5.1622 0.7492h-0.25v0.25h0.25v-0.25zm10.583 2.5823-0.1766-0.1769-1e-4 1e-4 0.1767 0.1768zm-0.5731-13.986 0.1661-0.1869-0.0013-0.0011-0.1648 0.188zm-16.543-2.3881v-0.25h-0.25v0.25h0.25zm0 29.037h-0.25v0.25h0.25v-0.25zm6.6585 0v0.25h0.25v-0.25h-0.25zm0-9.9745v-0.25h-0.25v0.25h0.25zm-0.1252-12.279h1.3643v-0.5h-1.3643v0.5zm1.3643 0c1.2572 0 2.6084 0.0735 3.6166 0.7607l0.2816-0.4131c-1.1509-0.7845-2.6525-0.8476-3.8982-0.8476v0.5zm3.6121 0.7576c0.4876 0.3483 1.3069 1.1531 1.3069 2.6282h0.5c0-1.6916-0.9496-2.6303-1.5163-3.0351l-0.2906 0.4069zm1.3069 2.6282c0 1.0959-0.4837 2.0702-1.2732 2.6753l0.3042 0.3969c0.9186-0.7042 1.469-1.8281 1.469-3.0722h-0.5zm-1.2679 2.6714c-1.0174 0.7385-2.2294 0.7016-3.2956 0.7016v0.5c1.0255 0 2.4166 0.0543 3.5893-0.7969l-0.2937-0.4047zm-3.2956 0.7016h-1.7198v0.5h1.7198v-0.5zm-1.4698 0.25v-7.2588h-0.5v7.2588h0.5zm2.8157 5.5204c3.2799 0 5.8794-0.9472 7.694-2.7613l-0.3534-0.3536c-1.6984 1.6979-4.1577 2.6149-7.3406 2.6149v0.5zm7.6939-2.7611c2.2321-2.2275 2.5571-5.278 2.5571-6.8632h-0.5c0 1.5423-0.3209 4.4242-2.4103 6.5093l0.3532 0.3539zm2.5571-6.8632c0-1.7014-0.4017-5.0538-3.1407-7.487l-0.3321 0.3738c2.5811 2.293 2.9728 5.468 2.9728 7.1132h0.5zm-3.142-7.4881c-2.246-1.9681-4.6442-2.4501-7.9536-2.4501v0.5c3.2543 0 5.5091 0.4729 7.6241 2.3261l0.3295-0.376zm-7.9536-2.4501h-8.7544v0.5h8.7544v-0.5zm-9.0044 0.25v29.037h0.5v-29.037h-0.5zm0.25 29.287h6.6585v-0.5h-6.6585v0.5zm6.9085-0.25v-9.9745h-0.5v9.9745h0.5zm-0.25-9.7245h2.9405v-0.5h-2.9405v0.5z" fill="#80949F"/>
<path d="m81.227 24.876c-1.4476-1.2826-3.4684-2.0262-5.7619-2.7974-1.6342-0.5686-2.5346-0.8819-3.1348-1.4292-0.4738-0.4022-0.6851-0.8388-0.6851-1.4159 0-1.264 0.8589-2.6149 3.2702-2.6149 1.6387 0 3.0108 0.7007 4.0783 2.0818l0.4238 0.5483 3.5163-4.4758-0.3206-0.3211c-2.1505-2.152-4.9843-3.2891-8.1952-3.2891-6.4783 0-9.3782 4.2145-9.3782 8.3915 0 2.2414 0.7993 4.0491 2.3709 5.3706 1.407 1.2059 3.1229 1.8816 4.7687 2.4332l0.1861 0.0617c1.4615 0.4831 2.9731 0.983 3.8759 1.791 0.6281 0.5771 0.908 1.2043 0.908 2.0333 0 1.9001-1.4963 3.177-3.7233 3.177-1.7604 0-4.0785-0.8629-5.3049-3.284l-0.3208-0.6344-4.3706 4.0458 0.2577 0.3646c1.3945 1.9744 4.541 5.2867 9.9459 5.2867 5.9597 0 10.122-3.8315 10.122-9.3173 0-3.1377-1.3766-4.9999-2.5287-6.0064" clip-rule="evenodd" fill="#6B7B84" fill-rule="evenodd"/>
<path d="m81.227 24.876c-1.4476-1.2826-3.4684-2.0262-5.7619-2.7974-1.6342-0.5686-2.5346-0.8819-3.1348-1.4292-0.4738-0.4022-0.6851-0.8388-0.6851-1.4159 0-1.264 0.8589-2.6149 3.2702-2.6149 1.6387 0 3.0108 0.7007 4.0783 2.0818l0.4238 0.5483 3.5163-4.4758-0.3206-0.3211c-2.1505-2.152-4.9843-3.2891-8.1952-3.2891-6.4783 0-9.3782 4.2145-9.3782 8.3915 0 2.2414 0.7993 4.0491 2.3709 5.3706 1.407 1.2059 3.1229 1.8816 4.7687 2.4332l0.1861 0.0617c1.4615 0.4831 2.9731 0.983 3.8759 1.791 0.6281 0.5771 0.908 1.2043 0.908 2.0333 0 1.9001-1.4963 3.177-3.7233 3.177-1.7604 0-4.0785-0.8629-5.3049-3.284l-0.3208-0.6344-4.3706 4.0458 0.2577 0.3646c1.3945 1.9744 4.541 5.2867 9.9459 5.2867 5.9597 0 10.122-3.8315 10.122-9.3173 0-3.1377-1.3766-4.9999-2.5287-6.0064" stroke="#80949F" stroke-width=".5"/>
</svg>

