<svg width="500" height="500" viewBox="0 0 500 500" fill="none" xmlns="http://www.w3.org/2000/svg">
<g clip-path="url(#clip0_256_7)">
<circle cx="250" cy="250" r="250" fill="#FF3E79"/>
<path fill-rule="evenodd" clip-rule="evenodd" d="M185.624 126C185.072 126 184.624 126.448 184.624 127V155.547C184.624 156.099 185.072 156.547 185.624 156.547H366.333C415.632 156.547 454.349 194.501 454.349 243.633V245.15C454.349 245.703 454.797 246.15 455.349 246.15H484C484.552 246.15 485 245.703 485 245.15V243.633C485 177.967 432.221 126 366.333 126H185.624Z" fill="white" stroke="white" stroke-width="0.5"/>
<path fill-rule="evenodd" clip-rule="evenodd" d="M46.0617 248.284V247.151C46.0617 246.598 45.614 246.151 45.0617 246.151H16C15.4477 246.151 15 246.598 15 247.151V248.284C15 314.73 64.7671 369.59 129.12 373.18L339.112 373.368C339.664 373.368 340.113 372.92 340.113 372.368V342.334C340.113 341.782 339.665 341.334 339.113 341.334H136.216C86.386 341.196 46.0617 299.743 46.0617 248.284Z" fill="white" stroke="white" stroke-width="0.5"/>
<path fill-rule="evenodd" clip-rule="evenodd" d="M148.46 316.827C161.793 316.827 172.898 314.237 183.867 308.907L184.624 308.199V270.06L180.52 275.315C172.622 283.945 162.015 288.696 150.014 288.696C127.662 288.696 105.213 274.249 105.213 246.637C105.213 225.771 120.696 203.594 149.228 203.594C154.922 203.594 168.767 204.941 180.5 217.4L184.624 222.481V184.516L183.901 183.798C172.724 178.197 161.325 175.474 148.325 175.474C126.092 175.474 108.74 181.327 94.923 193.357C86.1589 200.896 71.5417 217.792 71.5417 246.24C71.5417 267.274 79.0313 283.701 95.0351 297.949C109.923 311.004 126.431 316.827 148.46 316.827" fill="white"/>
<path d="M148.46 316.827C161.793 316.827 172.898 314.237 183.867 308.907L184.624 308.199V270.06L180.52 275.315C172.622 283.945 162.015 288.696 150.014 288.696C127.662 288.696 105.213 274.249 105.213 246.637C105.213 225.771 120.696 203.594 149.228 203.594C154.922 203.594 168.767 204.941 180.5 217.4L184.624 222.481V184.516L183.901 183.798C172.724 178.197 161.325 175.474 148.325 175.474C126.092 175.474 108.74 181.327 94.923 193.357C86.1589 200.896 71.5417 217.792 71.5417 246.24C71.5417 267.274 79.0313 283.701 95.0351 297.949C109.923 311.004 126.431 316.827 148.46 316.827" stroke="white" stroke-width="0.5"/>
<path fill-rule="evenodd" clip-rule="evenodd" d="M244.699 207.278H251.341C257.433 207.278 264.377 207.61 269.632 211.192C272.198 213.026 276.504 217.269 276.504 224.977C276.504 230.673 273.987 235.78 269.829 238.967C264.498 242.836 258.162 242.614 253.071 242.614H244.699V207.278ZM259.623 268.271C275.353 268.271 287.667 263.733 296.217 255.185C306.736 244.688 308.308 230.249 308.308 222.636C308.308 214.491 306.377 198.603 293.428 187.099C282.813 177.798 271.487 175.474 255.512 175.474H212.894V316.827H245.309V268.271H259.623V268.271Z" fill="white"/>
<path d="M244.699 207.278V207.028H244.449V207.278H244.699ZM269.632 211.192L269.777 210.989L269.773 210.986L269.632 211.192ZM269.829 238.967L269.976 239.169L269.981 239.165L269.829 238.967ZM244.699 242.614H244.449V242.864H244.699V242.614ZM296.217 255.185L296.041 255.008L296.041 255.008L296.217 255.185ZM293.428 187.099L293.594 186.912L293.592 186.911L293.428 187.099ZM212.894 175.474V175.224H212.644V175.474H212.894ZM212.894 316.827H212.644V317.077H212.894V316.827ZM245.309 316.827V317.077H245.559V316.827H245.309ZM245.309 268.271V268.021H245.059V268.271H245.309ZM244.699 207.528H251.341V207.028H244.699V207.528ZM251.341 207.528C257.439 207.528 264.307 207.866 269.491 211.399L269.773 210.986C264.446 207.355 257.427 207.028 251.341 207.028V207.528ZM269.487 211.396C272.013 213.201 276.254 217.377 276.254 224.977H276.754C276.754 217.161 272.383 212.85 269.777 210.989L269.487 211.396ZM276.254 224.977C276.254 230.598 273.77 235.631 269.677 238.768L269.981 239.165C274.203 235.929 276.754 230.747 276.754 224.977H276.254ZM269.682 238.764C264.429 242.577 258.183 242.364 253.071 242.364V242.864C258.142 242.864 264.568 243.095 269.976 239.169L269.682 238.764ZM253.071 242.364H244.699V242.864H253.071V242.364ZM244.949 242.614V207.278H244.449V242.614H244.949ZM259.623 268.521C275.402 268.521 287.785 263.968 296.394 255.362L296.041 255.008C287.548 263.498 275.305 268.021 259.623 268.021V268.521ZM296.394 255.362C306.984 244.794 308.558 230.27 308.558 222.636H308.058C308.058 230.227 306.488 244.583 296.041 255.008L296.394 255.362ZM308.558 222.636C308.558 214.462 306.622 198.486 293.594 186.912L293.262 187.286C306.132 198.72 308.058 214.519 308.058 222.636H308.558ZM293.592 186.911C282.912 177.553 271.515 175.224 255.512 175.224V175.724C271.46 175.724 282.714 178.043 293.263 187.287L293.592 186.911ZM255.512 175.224H212.894V175.724H255.512V175.224ZM212.644 175.474V316.827H213.144V175.474H212.644ZM212.894 317.077H245.309V316.577H212.894V317.077ZM245.559 316.827V268.271H245.059V316.827H245.559ZM245.309 268.521H259.623V268.021H245.309V268.521Z" fill="white"/>
<path fill-rule="evenodd" clip-rule="evenodd" d="M405.548 242.231C398.5 235.987 388.663 232.367 377.498 228.613C369.543 225.845 365.16 224.32 362.238 221.655C359.931 219.698 358.903 217.572 358.903 214.763C358.903 208.609 363.084 202.034 374.823 202.034C382.8 202.034 389.479 205.444 394.676 212.167L396.739 214.837L413.856 193.048L412.296 191.485C401.827 181.009 388.032 175.474 372.401 175.474C340.864 175.474 326.748 195.99 326.748 216.324C326.748 227.235 330.639 236.035 338.289 242.468C345.139 248.339 353.491 251.628 361.504 254.313L362.409 254.613C369.524 256.965 376.883 259.399 381.277 263.332C384.335 266.141 385.698 269.194 385.698 273.231C385.698 282.48 378.413 288.696 367.572 288.696C359.003 288.696 347.718 284.495 341.748 272.709L340.186 269.621L318.91 289.316L320.165 291.091C326.953 300.702 342.27 316.827 368.582 316.827C397.594 316.827 417.857 298.175 417.857 271.47C417.857 256.196 411.156 247.13 405.548 242.231" fill="white"/>
<path d="M405.548 242.231C398.5 235.987 388.663 232.367 377.498 228.613C369.543 225.845 365.16 224.32 362.238 221.655C359.931 219.698 358.903 217.572 358.903 214.763C358.903 208.609 363.084 202.034 374.823 202.034C382.8 202.034 389.479 205.444 394.676 212.167L396.739 214.837L413.856 193.048L412.296 191.485C401.827 181.009 388.032 175.474 372.401 175.474C340.864 175.474 326.748 195.99 326.748 216.324C326.748 227.235 330.639 236.035 338.289 242.468C345.139 248.339 353.491 251.628 361.504 254.313L362.409 254.613C369.524 256.965 376.883 259.399 381.277 263.332C384.335 266.141 385.698 269.194 385.698 273.231C385.698 282.48 378.413 288.696 367.572 288.696C359.003 288.696 347.718 284.495 341.748 272.709L340.186 269.621L318.91 289.316L320.165 291.091C326.953 300.702 342.27 316.827 368.582 316.827C397.594 316.827 417.857 298.175 417.857 271.47C417.857 256.196 411.156 247.13 405.548 242.231" stroke="white" stroke-width="0.5"/>
</g>
<defs>
<clipPath id="clip0_256_7">
<rect width="500" height="500" fill="white"/>
</clipPath>
</defs>
</svg>
