<svg xmlns="http://www.w3.org/2000/svg" fill="none" viewBox="0 0 227 256"><path fill="url(#a)" d="M115.376.687453c0-.190715.34-.446864.754-.569129.414-.12226452 2.006-.1549855 3.537-.0736192l2.785.1489532.157.472268c.087.260028.432.472704.768.472704.335 0 .61.19373.61.43051s.344.43051.765.43051h.766l1.239 1.71816 1.413.26519c.777.14551 1.413.4374 1.413.64748 0 .21052.388.38273.861.38273h.861v.43051c0 .23678.291.43051.646.43051.355 0 .646.15412.646.34225 0 .18814.872.70173 1.937 1.14128 1.066.43912 1.937.96348 1.937 1.16453 0 .20105.388.3655.861.3655h.861v.43051c0 .23678.291.43051.646.43051h.646v1.04099c0 .5726-.118 1.3475-.261 1.722l-.262.6811h-1.63v.861h-1.722v.4305c0 .2368-.29.4305-.645.4305-.356 0-.646.1937-.646.4305v.4305h-.831c-.456 0-1.12.2906-1.475.6458-.356.3552-1.047.6458-1.538.6458h-.892v.4305c0 .2368-.204.4305-.453.4305-.249 0-1.166.4843-2.037 1.0763-.872.5919-1.927 1.0762-2.345 1.0762-.419 0-.761.1576-.761.35 0 .1929-.678.6165-1.507.9416-.829.325-1.507.7486-1.507.9415 0 .1924-.35.35-.779.35-.428 0-1.154.2845-1.614.632-.459.3478-1.27.6384-1.801.6457l-.965.0138-1.075 1.722h-.758c-.416 0-.757.1938-.757.4306v.4305h-1.722v.8218l-1.507.2828c-.829.1555-1.507.4551-1.507.6652 0 .2105-.29.3827-.645.3827-.356 0-.646.1937-.646.4305v.4305h-1.722v.861h-.861c-.474 0-.861.1723-.861.3828 0 .2101-.678.5097-1.507.6651l-1.507.2829v.8218h-1.7219v.4305c0 .2368-.2906.4305-.6458.4305-.3551 0-.6457.1937-.6457.4305v.4305h-1.7221v.8219l-1.5068.2828c-.8287.1554-1.5067.4551-1.5067.6651 0 .2106-.3875.3828-.8611.3828h-.861v.4305c0 .2368-.2906.4305-.6457.4305-.3552 0-.6458.1937-.6458.4305v.4305h-1.722v.8219l-1.5068.2828c-.8288.1554-1.5068.455-1.5068.6651 0 .2106-.3875.3828-.861.3828h-.861v.4305c0 .2367-.2906.4305-.6458.4305s-.6458.1937-.6458.4305v.4305h-1.722v.861h-1.722v.8219l-1.5068.2828c-.8288.1554-1.5068.455-1.5068.6651 0 .2105-.2906.3828-.6458.3828-.3551 0-.6457.1937-.6457.4305v.4305H72.756v.861h-1.722v.8218l-1.5068.2829c-.8287.1554-1.5068.455-1.5068.6651 0 .2105-.2906.3827-.6457.3827-.3552 0-.6458.1938-.6458.4305 0 .2368-.254.4306-.5644.4306-.3108 0-.985.3917-1.4986.87-.514.4787-1.5188.9872-2.2339 1.1301-.7146.1429-1.2997.4296-1.2997.6367 0 .2071-.3875.3767-.861.3767h-.861v.4305c0 .2368-.2906.4305-.6458.4305s-.6458.1938-.6458.4305v.4306h-1.722v.8218l-1.5068.2828c-.8287.1555-1.5068.4551-1.5068.6652 0 .2105-.3874.3827-.861.3827h-.861v.4305c0 .2368-.2906.4305-.6458.4305-.3551 0-.6457.1937-.6457.4305v.4305h-.8611c-.4735 0-.861.1722-.861.3828 0 .2101-.678.5097-1.5068.6651l-1.5067.2828v.8219h-1.7221v.4305c0 .2368-.2906.4305-.6457.4305-.3552 0-.6458.1464-.6458.3255 0 .3353-1.5782 1.0879-3.4109 1.626-.5739.1683-1.4336.6703-1.9111 1.1146-.477.4447-1.1214.8085-1.4323.8085-.3104 0-.5644.1575-.5644.35 0 .1928-.678.6165-1.5067.9415-.8288.325-1.5068.7401-1.5068.9217 0 .1821-.6781.4581-1.5068.6135-.8287.1554-1.5068.455-1.5068.6651 0 .2106-.3874.3828-.861.3828h-.861v.4305c0 .2368-.2906.4305-.6458.4305s-.6457.1937-.6457.4305v.4305H25.4c-.4735 0-.861.1808-.861.4017 0 .2208-.3874.5243-.861.6746l-.861.2734V173.381l2.0148 2.015 1.3604.299c.7482.164 1.3604.477 1.3604.695 0 .218.3448.396.7659.396h.7658l.6208.861c.3414.474.8684.861 1.1714.861.3027 0 .5507.194.5507.431v.43h.861c.4735 0 .861.173.861.384 0 .211.4843.506 1.0763.654.5919.149 1.0762.461 1.0762.693v.422h1.7221v.861h1.722v.43c0 .237.2075.431.4611.431.254 0 .7521.291 1.1073.646.3551.355.9312.645 1.2799.645h.6337l-.0388-15.605c-.0215-8.584-.0301-16.043-.0189-16.575l.0198-.969h2.5215l.6457.646c.3552.355.8107.646 1.0122.646s.6453.387.9867.861l.6208.861h.7659c.421 0 .7658.194.7658.43 0 .237.2906.431.6458.431s.6458.194.6458.43v.431h.8304c.4564 0 1.1206.29 1.4758.646.3552.355.9501.645 1.3225.645.372 0 .6764.194.6764.431s.2479.43.5506.43c.3031 0 .83.388 1.1714.861.3414.474.8528.861 1.1365.861.6962 0 3.1626 1.426 3.166 1.83.0013.178.3694.323.8175.323h.815l.2613.681c.1438.375.2613 15.001.2613 32.504v31.822h-2.3927l-.6208-.861c-.3414-.474-.8684-.861-1.1715-.861-.3026 0-.5506-.172-.5506-.383 0-.21-.6823-.51-1.5162-.667l-1.5167-.284-1.0487-1.68h-.7577c-.4163 0-.7573-.193-.7573-.43v-.431h-1.6639l-.5244-1.652-3.4083-.576v-.393c0-.216-.248-.392-.5506-.392-.3031 0-.83-.388-1.1714-.861l-.6208-.861h-.7659c-.421 0-.7667-.145-.7676-.323-.0009-.178-.8726-.681-1.9373-1.119-1.0646-.438-1.9356-.971-1.9356-1.184 0-.214-.2906-.388-.6457-.388-.3552 0-.6458-.194-.6458-.43v-.431h-1.722v-.422c0-.232-.4844-.544-1.0763-.692-.592-.149-1.0763-.443-1.0763-.654 0-.212-.3874-.384-.861-.384h-.861v-.431c0-.237-.2196-.43-.4878-.43s-.8012-.362-1.1843-.804l-.6966-.803-2.8383-.623-1.0272-1.645h-.7577c-.4163 0-.7573-.194-.7573-.431v-.43h-1.6299l-.4955-1.292h-1.7492v-.861h-1.722v-.43c0-.237-.2195-.431-.4878-.431-.2682 0-.8011-.361-1.1843-.803-.3831-.442-1.2885-.933-2.0118-1.092l-1.3152-.289-1.2183-1.69h-1.5318v-.436c0-.24-1.1137-.959-2.47538-1.598-1.36127-.638-2.54-1.313-2.61879-1.501-.07921-.187-.47227-.34-.87394-.34h-.7297l-.6208-.861c-.34139-.473-.86833-.861-1.17141-.861-.30265 0-.55063-.194-.55063-.43 0-.237-.24754-.431-.55019-.431-.30264 0-.88383-.389-1.291523-.866L0 190.122V60.0792l1.0569-1.0565c.58119-.5812 1.17012-1.0569 1.30918-1.0569.13905 0 .64447-.3646 1.12277-.8102l.86962-.8102 3.39069-.5424v-.8507H9.4712v-.8611h1.722v-.4305c0-.2367.2906-.4305.6458-.4305s.6458-.1722.6458-.3827c0-.2101.678-.5097 1.5067-.6651l1.5068-.2829v-.8218h1.7221v-.861h1.722v-.4305c0-.2368.2906-.4306.6458-.4306.3551 0 .6457-.1937.6457-.4305v-.4305h.861c.4736 0 .8611-.1726.8611-.384 0-.2109.4843-.5054 1.0762-.6539.592-.1486 1.0763-.4602 1.0763-.6923v-.4223h2.3928l1.2416-1.7221h1.9622v-.8218l1.5068-.2828c.8287-.1555 1.5068-.4551 1.5068-.6652 0-.2105.3874-.3827.861-.3827h.861v-.4305c0-.2368.2906-.4305.6458-.4305s.6458-.1937.6458-.4305v-.4305h.861c.4735 0 .861-.1722.861-.3828 0-.21.678-.5097 1.5068-.6651l1.5068-.2828v-.8219h1.722v-.4305c0-.2368.2906-.4305.6458-.4305.3551 0 .6457-.1937.6457-.4305v-.4305h.861c.4736 0 .8611-.1722.8611-.3827 0-.2101.678-.5098 1.5067-.6652l1.5068-.2828v-.8219h1.7221v-.4305c0-.2368.2905-.4305.6457-.4305.3552 0 .6458-.1937.6458-.4305v-.4305h1.722v-.861h.8305c.4563 0 1.1206-.2906 1.4758-.6458.3551-.3551 1.0469-.6457 1.5377-.6457h.8916v-.4306c0-.2367.2906-.4305.6458-.4305.3551 0 .6457-.1937.6457-.4305v-.4305h.8611c.4735 0 .861-.1722.861-.3827 0-.2101.678-.5097 1.5068-.6651l1.5067-.2829v-.4107c0-.226.2906-.4111.6458-.4111s.6458-.155.6458-.344c0-.1894.7194-.604 1.5985-.9222.8795-.3177 1.8619-.8412 2.1835-1.1628.3216-.3215 1.0552-.5846 1.6299-.5846h1.0457v-.861h1.722v-.861h1.7221v-.4305c0-.2368.2195-.4305.4877-.4305s.8012-.3617 1.1844-.8034l.6965-.8033 1.3988-.307c.7693-.1692 1.3987-.4856 1.3987-.7034 0-.2183.3874-.3965.861-.3965h.861v-.4305c0-.2368.2906-.4305.6458-.4305s.6457-.1938.6457-.4305v-.4305h.8611c.4735 0 .861-.1723.861-.3828 0-.2101.678-.5097 1.5068-.6651l1.5067-.2829v-.8218h1.7221v-.861h1.722v-.4305c0-.2368.2906-.4305.6458-.4305.3551 0 .6457-.1722.6457-.3828 0-.21.6781-.5097 1.5068-.6651l1.5068-.2828v-.8219h1.722v-.86099h1.7221V9.3183c0-.23678.2906-.43051.6457-.43051.3552 0 .6462-.1722.6462-.38272 0-.21009.678-.50973 1.506-.66514l1.507-.28284v-.82184h1.722v-.86102h1.722v-.43051c0-.23678.291-.43051.646-.43051.355 0 .646-.17221.646-.38273 0-.21008.678-.50972 1.507-.66513l1.506-.28284v-.82185h.861c.474 0 .861-.17005.861-.37841 0-.20794.582-.61907 1.292-.91311.71-.29404 1.291-.690971 1.291-.881687Z"/><path fill="url(#b)" fill-rule="evenodd" d="M154.194 25.7719c.079-.1851.822-.6647 1.65-1.0663l1.507-.7302 4.889-.0198.646.6458c.355.3551.853.6457 1.107.6457s.461.1938.461.4305c0 .2368.345.4306.766.4306h.766l1.219 1.6901 1.315.2889c.723.1589 1.628.6505 2.012 1.0922.383.4417.916.8033 1.184.8033.268 0 .488.1938.488.4305v.4306h1.722v.4223c0 .232.484.5437 1.076.6922.592.1486 1.076.443 1.076.654 0 .2114.388.384.861.384h.861v.4305c0 .2368.248.4305.551.4305.303 0 .83.3875 1.171.861l.621.8611h.713c.393 0 .954.2906 1.249.6457.295.3552.803.6458 1.129.6458.326 0 .593.1937.593.4305v.4305h1.722v.861h1.63l.496 1.2915h1.749v.8611h1.722v.4305c0 .2368.22.4305.488.4305s.801.3616 1.184.8033l.697.8033 1.398.307c.77.1692 1.399.4856 1.399.7035 0 .2182.254.3964.565.3964.31 0 .98.3875 1.489.8611.508.4735 1.125.861 1.372.861.247 0 .449.1937.449.4305v.4305h.808c.444 0 1.049.2906 1.344.6458.295.3551.803.6457 1.129.6457.326 0 .593.1938.593.4305 0 .2368.345.4305.766.4305h.766l.621.8611c.341.4735.868.861 1.171.861.303 0 .551.1937.551.4305v.4305h.83c.457 0 1.121.2906 1.476.6458.355.3551.853.6457 1.107.6457s.461.1938.461.4305v.4305h1.723v.8611h1.629l.496 1.2915h1.749v.861h1.664l.547 1.722h.831c.458 0 .833.1697.833.3767 0 .2071.532.4844 1.184.6161.651.1317 1.611.6406 2.134 1.1301.523.4899 1.249.8907 1.614.8907h.664v.6652c0 .8614-1.917 2.7789-2.779 2.7789-.366 0-.665.1937-.665.4305 0 .2368-.29.4305-.646.4305-.355 0-.645.1778-.645.3948 0 .2174-.872.728-1.938 1.1348-1.065.4068-1.937.9075-1.937 1.112 0 .2045-.387.372-.861.372-.473 0-.861.1575-.861.35 0 .1928-.678.6165-1.507.9415-.828.325-1.506.7271-1.506.8933 0 .1662-.679.4296-1.507.5851l-1.507.2828v.4107c0 .226-.254.4111-.564.4111-.311 0-.981.3875-1.49.8611-.508.4735-1.125.861-1.372.861-.247 0-.449.1765-.449.3926v.3926l-3.444.5821v.3926c0 .2161-.29.3926-.645.3926-.356 0-.646.1938-.646.4305v.4305h-.861c-.474 0-.861.1481-.861.329 0 .3767-3.173 1.8236-3.998 1.8236-.301 0-.827.3874-1.168.861-.342.4736-.869.861-1.172.861-.302 0-.55.1938-.55.4305v.4305h-1.722v.8219l-1.507.2828c-.829.1554-1.507.4551-1.507.6652 0 .2105-.291.3827-.646.3827-.355 0-.647.1451-.649.3229-.004.3749-2.078 1.3991-2.834 1.3991-.283 0-.626.2906-.762.6458l-.248.6458h-1.749v.861h-1.722v.4305c0 .2368-.291.4305-.646.4305-.355 0-.646.1937-.646.4305v.4305h-1.722v.4223c0 .2321-.484.5438-1.076.6923-.592.1485-1.076.443-1.076.6539 0 .2114-.388.3841-.861.3841h-.861v.861h-1.722v.4305c0 .2368-.291.4305-.646.4305-.355 0-.646.1937-.646.4305v.4305h-.861c-.473 0-.861.1782-.861.3965 0 .2178-.629.5343-1.399.7035l-1.398.3069-.697.8033c-.383.4417-.916.8034-1.184.8034-.269 0-.488.1937-.488.4305v.4305h-.861c-.474 0-.861.1722-.861.3827 0 .2101-.678.5097-1.507.6651l-1.507.283v.822h-.861c-.473 0-.861.17-.861.378s-.629.636-1.399.95c-.77.315-1.655.823-1.968 1.129-.313.306-.943.556-1.399.556h-.83v.431c0 .237-.291.43-.646.43-.355 0-.646.194-.646.431v.43h-.861c-.473 0-.861.148-.861.329 0 .328-3.125 1.824-3.811 1.824-.198 0-.711.387-1.14.861-.428.473-1.039.861-1.358.861-.319 0-.579.194-.579.43v.431h-.861c-.474 0-.861.178-.861.396 0 .218-.629.535-1.399.704l-1.398.307-.697.803c-.383.442-1.021.803-1.418.803-.396 0-1.148.401-1.671.891-.523.49-1.484.999-2.135 1.13-.651.132-1.184.409-1.184.616 0 .207-.387.377-.861.377h-.861v.431c0 .236-.29.43-.646.43-.355 0-.645.194-.645.431v.43h-.861c-.474 0-.863.145-.864.323-.004.433-2.493 1.83-3.261 1.83-.336 0-.611.193-.611.43v.431h-1.722v.43c0 .237-.291.431-.646.431-.355 0-.646.193-.646.43v.431h-.861c-.473 0-.861.178-.861.396 0 .218-.618.532-1.374.698-.757.166-1.628.555-1.937.865l-.563.562v102.834l1.937-.443c1.066-.244 1.937-.605 1.937-.801 0-.198.252-.359.561-.359.791 0 2.876-1.012 2.88-1.399.002-.178.391-.323.865-.323.473 0 .861-.172.861-.382 0-.21.678-.51 1.506-.666l1.507-.282v-.822h1.722v-.431c0-.236.291-.43.646-.43.355 0 .646-.194.646-.431v-.43h.861c.473 0 .861-.172.861-.383 0-.21.678-.51 1.507-.665l1.506-.283v-.822h1.722v-.43c0-.237.291-.431.646-.431.355 0 .646-.194.646-.43v-.431h.861c.473 0 .861-.172.861-.383 0-.21.678-.509 1.507-.665l1.506-.283v-.821h.861c.474 0 .861-.182.861-.403 0-.222.679-.648 1.507-.947.829-.3 1.507-.678 1.507-.842 0-.162.678-.423 1.507-.578l1.507-.283v-.822h1.722v-.861h1.722v-.43c0-.237.29-.431.645-.431.356 0 .646-.172.646-.383 0-.21.678-.509 1.507-.665l1.507-.283v-.822h1.722v-.861h1.722v-.43c0-.237.29-.431.646-.431.355 0 .645-.193.645-.43v-.431h1.722v-.821l1.507-.283c.829-.156 1.507-.455 1.507-.665 0-.211.387-.383.861-.383h.861v-.431c0-.236.291-.43.646-.43.355 0 .646-.194.646-.431v-.43h.835c.46 0 .946-.179 1.081-.398.135-.218.825-.524 1.532-.68.708-.155 1.287-.418 1.287-.584 0-.167.872-.56 1.937-.875 1.066-.314 1.938-.744 1.938-.955 0-.211.304-.383.676-.383.372 0 .967-.29 1.323-.646l.645-.645h2.091v-.861h1.722v-.431c0-.237.291-.43.646-.43.355 0 .646-.194.646-.431v-.43h1.722v-.822l1.507-.283c.828-.155 1.506-.455 1.506-.665 0-.211.388-.383.861-.383h.862v-.43c0-.237.29-.431.645-.431.355 0 .646-.194.646-.43v-.431h.861c.474 0 .861-.172.861-.383 0-.21.678-.509 1.507-.665l1.507-.283v-.821h1.722v-.431c0-.237.29-.43.645-.43.356 0 .646-.194.646-.431v-.43h1.722v-.862h.826c.454 0 1.132-.117 1.507-.261l.681-.261V105.81l.861-.273c.473-.15.861-.452.861-.67v-.396l1.722-.275c.947-.152 1.722-.445 1.722-.651 0-.207.291-.376.646-.376.355 0 .645-.193.645-.43v-.431h2.153v-.402c0-.222.678-.648 1.507-.948.828-.299 1.507-.683 1.507-.851 0-.1683.774-.4369 1.722-.597l1.722-.2911v-.3926c0-.2161.29-.3926.645-.3926.356 0 .646-.1937.646-.4305v-.4305h.861c.474 0 .863-.1451.865-.3229.003-.3681 2.073-1.3992 2.807-1.3992.269 0 .706.4357.973.9687l.485.9686-.215 5.1661c-.118 2.841-.307 25.181-.42 49.644l-.205 44.477-.961.954c-1.087 1.078-3.758 2.435-4.793 2.435-.379 0-.688.194-.688.431s-.291.43-.646.43c-.355 0-.646.194-.646.431v.43h-.861c-.473 0-.861.148-.861.329 0 .4-3.196 1.824-4.093 1.824-.353 0-.643.194-.643.43 0 .237-.29.431-.645.431-.355 0-.646.194-.646.43v.431h-1.722v.861h-1.722v.822l-1.507.283c-.829.155-1.507.455-1.507.665 0 .21-.29.383-.645.383-.356 0-.646.17-.646.378s-.581.619-1.292.913c-.71.294-1.291.697-1.291.894 0 .197-.678.486-1.507.641-.829.156-1.507.455-1.507.665 0 .211-.387.383-.861.383h-.861v.431c0 .236-.29.43-.646.43-.355 0-.645.194-.645.431v.43h-1.722v.822l-1.507.283c-.829.155-1.507.455-1.507.665 0 .21-.387.383-.861.383h-.861v.43c0 .237-.291.431-.646.431-.355 0-.646.193-.646.43v.431h-1.722v.822l-1.506.282c-.829.156-1.507.455-1.507.666 0 .21-.388.382-.861.382h-.861v.431c0 .237-.291.43-.646.43-.355 0-.646.194-.646.431s-.345.43-.766.43h-.765l-1.242 1.722h-.95c-.523 0-1.241.291-1.597.646-.355.355-.95.646-1.322.646-.372 0-.676.194-.676.43 0 .237-.291.431-.646.431-.355 0-.646.194-.646.43v.431h-1.722v.822l-1.507.283c-.828.155-1.507.455-1.507.665 0 .21-.387.382-.861.382h-.861v.431c0 .237-.29.43-.645.43-.355 0-.646.194-.646.431v.43h-1.722v.822l-1.507.283c-.829.156-1.507.455-1.507.665 0 .211-.387.383-.861.383h-.861v.431c0 .236-.29.43-.645.43-.356 0-.646.194-.646.431v.43h-.861c-.474 0-.861.172-.861.383 0 .21-.678.51-1.507.665l-1.507.283v.822h-1.722v.43c0 .237-.29.431-.646.431-.355 0-.645.193-.645.43v.431h-.861c-.474 0-.861.169-.861.376s-.533.485-1.184.616c-.652.132-1.612.641-2.135 1.13-.523.49-1.249.891-1.614.891s-.664.194-.664.431c0 .236-.291.43-.646.43-.355 0-.646.172-.646.383 0 .21-.678.51-1.506.665l-1.507.283v.822h-1.722v.861h-1.722v.43c0 .237-.291.431-.646.431-.355 0-.646.194-.646.43v.431h-.861c-.473 0-.861.172-.861.383 0 .21-.678.509-1.507.665l-1.506.283v.821h-1.722v.431c0 .237-.208.43-.461.43-.254 0-.747.286-1.096.635-.349.349-1.401.84-2.337 1.093-.937.252-1.703.644-1.703.872 0 .228-.252.414-.56.414-.792 0-2.877 1.012-2.881 1.399-.001.178-.391.323-.864.323h-.861V256h-2.583v-.861h-1.722v-.861h-1.722v-.431c0-.236-.291-.43-.646-.43-.355 0-.646-.156-.646-.348 0-.191-.823-.708-1.829-1.148-1.007-.44-2.144-1.155-2.526-1.59-.383-.433-1.013-.789-1.399-.789-.387 0-.7034-.172-.7034-.384 0-.211-.4843-.505-1.0763-.654-.5919-.148-1.0763-.46-1.0763-.692v-.422h-1.722v-.431c0-.236-.248-.43-.5506-.43-.3031 0-.83-.388-1.1714-.861l-.6208-.861h-.7659c-.421 0-.7659-.178-.7659-.397 0-.218-.5549-.518-1.2334-.667-.6785-.149-1.6389-.648-2.1344-1.11-.4956-.462-1.0152-.84-1.1542-.84-.1391 0-.728-.476-1.3092-1.057l-1.0569-1.056V109.513l.9269-.804c.5097-.442 1.1878-.804 1.5068-.804.319 0 .5798-.194.5798-.431v-.43h1.7221v-.861h.8356c.4598 0 .9553-.194 1.1017-.431.1463-.236.6419-.43 1.1016-.43.4598 0 .8357-.172.8357-.383 0-.21.678-.51 1.5067-.665l1.5068-.283v-.411c0-.226.2906-.411.6458-.411s.6458-.193.6458-.43.2987-.431.6638-.431c.3651 0 1.0797-.387 1.5877-.861l.9239-.861h1.899l.495-1.2913h1.749v-.861h.836c.46 0 .955-.1937 1.101-.4305.147-.2368.642-.4305 1.102-.4305h.836v-.8611h.861c.473 0 .861-.1782.861-.3965 0-.2178.613-.5308 1.363-.6957 1.346-.2953 1.775-.551 3.403-2.0289.457-.4142 1.121-.7534 1.476-.7534s.646-.1722.646-.3828c0-.2101.678-.5097 1.507-.6651l1.507-.2828v-.8219h1.722v-.4305c0-.2368.207-.4305.461-.4305 1.587 0 2.106-2.032.615-2.4061-.592-.1485-1.076-.443-1.076-.654 0-.2113-.388-.384-.861-.384h-.861v-.4305c0-.2368-.22-.4305-.488-.4305s-.801-.3616-1.185-.8033c-.383-.4417-1.288-.9334-2.011-1.0922l-1.316-.2889-1.218-1.6902h-.766c-.421 0-.766-.1937-.766-.4305v-.4305h-1.63l-.495-1.2915h-1.749v-.861h-1.722v-.4305c0-.2368-.291-.4306-.646-.4306-.355 0-.646-.1937-.646-.4305v-.4305h-2.152v.4305c0 .2368-.291.4305-.646.4305-.355 0-.646.1938-.646.4306v.4305h-.861c-.473 0-.861.1722-.861.3827 0 .2101-.678.5097-1.5067.6651l-1.5067.2829v.8218h-1.7221v.4305c0 .2368-.2906.4305-.6457.4305-.3552 0-.6458.1938-.6458.4305v.4305h-.861c-.4736 0-.861.1723-.861.3828 0 .2101-.6781.5097-1.5068.6651l-1.5068.2828v.8219h-1.722v.4305c0 .2368-.2906.4305-.6458.4305s-.6458.1937-.6458.4305v.4305h-.861c-.4735 0-.861.1722-.861.3828 0 .21-.6781.5097-1.5068.6651l-1.5068.2828v.8219h-1.722v.861h-1.722v.4305c0 .2368-.2906.4305-.6458.4305s-.6458.1722-.6458.3827c0 .2101-.678.5098-1.5068.6652l-1.5067.2828v.8219H72.756v.861h-1.722v.4305c0 .2368-.2906.4305-.6458.4305-.3551 0-.6457.1937-.6457.4305v.4305h-1.7221v.4305c0 .2368-.2608.4305-.5799.4305-.319 0-.997.3617-1.5067.8038l-.9269.8042v40.6434l-1.4375 1.438-.1782-.535c-.0982-.294-.5067-.534-.9084-.534h-.7297l-1.2416-1.722h-1.4396l-.4955-1.292h-1.7492v-.861h-1.6639l-.5468-1.722h-1.6639v-.861h-1.7491l-.4956-1.291H49.078v-.861h-1.722v-.431c0-.236-.2906-.43-.6458-.43-.3551 0-.6457-.156-.6457-.348 0-.191-.8158-.707-1.8129-1.147-.9971-.44-2.2563-1.244-2.7983-1.786l-.9854-.985V85.2597l1.0762-2.3175.7534-.0034c.4142-.0017.7534-.1972.7534-.434 0-.2367.2906-.4305.6458-.4305.3551 0 .6457-.1937.6457-.4305v-.4305h.8611c.4735 0 .861-.1722.861-.3827 0-.2101.678-.5097 1.5068-.6651l1.5067-.2829v-.8218h1.7221v-.4305c0-.2368.2906-.4305.6457-.4305.3552 0 .6458-.1938.6458-.4306v-.4305h1.722v-.8218l1.5068-.2829c.8287-.1554 1.5068-.455 1.5068-.6651 0-.2105.3875-.3827.861-.3827h.861v-.4305c0-.2368.2906-.4305.6458-.4305s.6458-.1938.6458-.4305v-.4305h1.722v-.8611h1.722v-.8218l1.5068-.2829c.8287-.1554 1.5068-.455 1.5068-.6651 0-.2105.2906-.3827.6458-.3827.3551 0 .6457-.1937.6457-.4305v-.4305h1.7221v-.861h1.722v-.8219l1.5068-.2828c.8287-.1554 1.5068-.4551 1.5068-.6652 0-.2105.2906-.3827.6457-.3827.3552 0 .6458-.1937.6458-.4305v-.4305h1.722v-.861h1.7221v-.8219l1.5067-.2828c.8288-.1554 1.5068-.4551 1.5068-.6651 0-.2106.2906-.3828.6458-.3828s.6457-.1937.6457-.4305v-.4305h1.7221v-.861h1.722v-.8218l1.5068-.2829c.8287-.1554 1.5068-.455 1.5068-.6651 0-.2105.3874-.3828.861-.3828h.861v-.4305c0-.2367.2906-.4305.6458-.4305.3551 0 .6457-.1937.6457-.4305v-.4305h.8611c.4735 0 .861-.1782.861-.3965 0-.2178.6294-.5342 1.3987-.7034l1.3987-.307.6966-.8033c.3832-.4417.9161-.8034 1.1843-.8034.2682 0 .4878-.1937.4878-.4305v-.4305h.8614c.473 0 .861-.1722.861-.3827 0-.2101.678-.5097 1.506-.6651l1.507-.2829v-.8218h1.722v-.4305c0-.2368.291-.4305.646-.4305.355 0 .646-.1938.646-.4305v-.4306h1.722v-.861h1.722v-.8218l1.507-.2829c.828-.1554 1.506-.455 1.506-.6651 0-.2105.388-.3827.861-.3827h.861v-.4305c0-.2368.291-.4305.646-.4305.355 0 .646-.1938.646-.4305V44.62h1.722v-.8218l1.507-.2828c.828-.1555 1.507-.4551 1.507-.6652 0-.2105.387-.3827.861-.3827h.861v-.4305c0-.2368.201-.4305.448-.4305s.865-.3875 1.373-.861c.508-.4736 1.261-.8611 1.673-.8611.412 0 1.04-.2905 1.395-.6457.355-.3552.934-.6458 1.286-.6458.353 0 .705-.1524.785-.3388.177-.4197 4.781-2.6747 5.46-2.6747.272 0 .495-.1938.495-.4306v-.4305h1.722v-.4305c0-.2368.29-.4305.646-.4305.355 0 .645-.1937.645-.4305v-.4305h.861c.474 0 .861-.1722.861-.3827 0-.2101.679-.5097 1.507-.6652l1.507-.2828v-.8218h1.722v-.8611h1.722v-.4305c0-.2368.208-.4305.461-.4305.254 0 .752-.2906 1.107-.6457.356-.3552 1.02-.6458 1.476-.6458h.831v-.4305c0-.2368.29-.4305.645-.4305.356 0 .646-.1938.646-.4305v-.4305h.825c.454 0 .89-.1512.969-.3363Zm8.228 27.0278c-.303 0-.551-.1537-.551-.3414 0-.1881-.726-.5316-1.614-.7641l-1.614-.4219-1.83.3943c-1.006.217-1.83.5605-1.83.7637 0 .2032-.29.3694-.646.3694-.355 0-.645.1937-.645.4305v.4305h-1.722v.8611h-.892c-.491 0-1.182.2905-1.538.6457l-.645.6458h-2.091v.861h-1.722v.861h-1.722v.4305c0 .2368-.291.4305-.646.4305-.355 0-.646.1722-.646.3828 0 .2101-.678.5097-1.507.6651l-1.507.2828v.8219h-1.722v.861h-1.722v.4305c0 .2368-.29.4305-.645.4305-.356 0-.646.1722-.646.3827 0 .2101-.678.5098-1.507.6652l-1.507.2828v.5601c0 .8386 1.508 2.4143 2.311 2.4143.386 0 .704.1451.705.3229 0 .1778.872.6811 1.937 1.1189 1.065.4378 1.935.9708 1.935 1.1839 0 .2135.291.3879.646.3879.355 0 .646.1937.646.4305v.4305h1.722v.4223c0 .2321.484.5437 1.076.6923.592.1485 1.077.443 1.077.6539 0 .2114.344.384.765.384h.766l.621.8611c.341.4735.868.861 1.171.861.303 0 .551.1937.551.4305v.4305h3.875v-.861h.835c.46 0 .956-.1938 1.102-.4305.146-.2368.642-.4305 1.102-.4305h.835v-.4306c0-.2367.291-.4305.646-.4305.355 0 .646-.1722.646-.3827 0-.2101.678-.5097 1.507-.6651l1.506-.2829v-.8218h1.722v-.861h.861c.474 0 .861-.1481.861-.3289 0-.4 3.196-1.8237 4.093-1.8237.354 0 .643-.1937.643-.4305v-.4305h2.153v-.861h1.722v-.4305c0-.2368.29-.4305.645-.4305.356 0 .646-.1783.646-.3965 0-.2179.619-.5321 1.375-.6979 1.847-.4059 3.583-2.3497 2.098-2.3497-.221 0-.518-.3672-.66-.8158l-.259-.8158-3.004-.5636-1.048-1.6794h-.758c-.416 0-.757-.1937-.757-.4305v-.4305h-1.63l-.496-1.2915h-1.749v-.4305c0-.2368-.345-.4305-.766-.4305h-.766l-.621-.8611c-.341-.4735-.868-.861-1.171-.861Z" clip-rule="evenodd"/><path fill="url(#c)" d="M176.616 119.833c-.532.102-.968.366-.968.587 0 .22-.291.4-.646.4-.355 0-.646.194-.646.431v.43h-1.722v.431c0 .236-.29.43-.646.43-.355 0-.645.177-.645.393v.392l-3.444.582v.393c0 .216-.291.393-.646.393-.355 0-.646.193-.646.43v.431h-1.722v.861h-1.722v.43c0 .237-.291.431-.646.431-.355 0-.646.172-.646.383 0 .21-.678.509-1.506.665l-1.507.282v.822h-1.722v.861h-1.722v.431c0 .237-.291.43-.646.43-.355 0-.646.173-.646.383 0 .21-.678.51-1.507.665l-1.506.283v.822h-1.722v.861h-1.722v.43c0 .237-.291.431-.646.431-.355 0-.646.172-.646.383 0 .21-.678.509-1.507.665l-1.506.283v.822h-1.723v.43c0 .237-.348.431-.775.431-.962 0-3.091.962-3.096 1.399-.001.177-.352.323-.778.323-.426 0-1.007.232-1.292.516l-.516.517v54.295l1.837 1.147.265-.396c.146-.219.895-.672 1.665-1.006.77-.335 1.399-.755 1.399-.934 0-.179.387-.326.861-.326h.861v-.43c0-.237.291-.431.646-.431.355 0 .646-.194.646-.43 0-.237.289-.431.642-.431.897 0 4.093-1.424 4.093-1.823 0-.181.388-.329.861-.329h.861v-.431c0-.237.291-.43.646-.43.355 0 .646-.177.646-.393v-.393l1.72-.29c.945-.16 1.828-.468 1.962-.684.134-.216.619-.393 1.079-.393h.835v-.861h1.722v-.43c0-.237.291-.431.646-.431.355 0 .646-.194.646-.431 0-.236.289-.43.643-.43.897 0 4.092-1.424 4.092-1.824 0-.18.345-.329.766-.329h.766l1.239-1.718 1.413-.265c.777-.145 1.413-.437 1.413-.647 0-.211.291-.383.646-.383.355 0 .646-.194.646-.431 0-.236.348-.43.775-.43.92 0 3.091-.955 3.096-1.361.001-.157.778-.416 1.725-.576l1.722-.291v-.393c0-.216.208-.393.461-.393.254 0 .739-.277 1.077-.615l.615-.615v-54.305l-1.615.058c-.887.032-2.05.143-2.583.246Z"/><defs><linearGradient id="a" x1="113.439" x2="113.439" y1="0" y2="256" gradientUnits="userSpaceOnUse"><stop stop-color="#0BB5C1"/><stop offset="1" stop-color="#4D8EEC"/></linearGradient><linearGradient id="b" x1="113.439" x2="113.439" y1="0" y2="256" gradientUnits="userSpaceOnUse"><stop stop-color="#0BB5C1"/><stop offset="1" stop-color="#4D8EEC"/></linearGradient><linearGradient id="c" x1="113.439" x2="113.439" y1="0" y2="256" gradientUnits="userSpaceOnUse"><stop stop-color="#0BB5C1"/><stop offset="1" stop-color="#4D8EEC"/></linearGradient></defs></svg>